{"asset":{"version":"2.0","generator":"VECTARY"},"nodes":[{"translation":[-2.2204460492503136e-19,-6.938893903907204e-21,-2.220446049250313e-19],"scale":[2.3918107564573945,2.3918107564573945,2.3918107564573945],"rotation":[-0.5013722858442037,-0.4986239378881703,-0.49862401912432774,0.5013722041602967],"name":"Light bulb","mesh":0},{"translation":[0.0068218973279750815,-6.938713329788469e-21,-2.232436277764984e-19],"scale":[2.3918107564573945,2.3918107564573945,2.3918107564573945],"rotation":[-0.5013722858442038,-0.4986239378881702,-0.4986240191243277,0.5013722041602968],"name":"Construction - piece","mesh":1},{"translation":[-2.2204460492503136e-19,-6.938893903907204e-21,-2.220446049250313e-19],"scale":[2.3918107564573945,2.3918107564573945,2.3918107564573945],"rotation":[-0.5013722858442037,-0.4986239378881703,-0.49862401912432774,0.5013722041602967],"name":"Holder","mesh":2}],"materials":[{"pbrMetallicRoughness":{"baseColorFactor":[0.48776520187781053,0.37867625092984036,0.05459227728176034,1],"metallicFactor":0,"roughnessFactor":0.2},"name":"Light bulb","emissiveFactor":[1,0.8509803921568627,0],"extensions":{},"alphaMode":"OPAQUE","doubleSided":false},{"pbrMetallicRoughness":{"baseColorFactor":[0.14198029068573553,0.14198029068573553,0.14198029068573553,1],"metallicFactor":0.27,"roughnessFactor":0.6},"name":"Construction","emissiveFactor":[0,0,0],"extensions":{},"alphaMode":"OPAQUE","doubleSided":false},{"pbrMetallicRoughness":{"baseColorFactor":[0.028991186547107816,0.00775102739766061,0.00775102739766061,1],"metallicFactor":0,"roughnessFactor":1},"name":"Holder","emissiveFactor":[0,0,0],"extensions":{},"alphaMode":"OPAQUE","doubleSided":false}],"meshes":[{"primitives":[{"mode":4,"attributes":{"POSITION":1,"NORMAL":2,"TEXCOORD_0":3},"material":0,"indices":0}]},{"primitives":[{"mode":4,"attributes":{"POSITION":5,"NORMAL":6,"TEXCOORD_0":7},"material":1,"indices":4}]},{"primitives":[{"mode":4,"attributes":{"POSITION":9,"NORMAL":10,"TEXCOORD_0":11},"material":2,"indices":8}]}],"accessors":[{"bufferView":0,"byteOffset":0,"componentType":5125,"count":2496,"type":"SCALAR"},{"bufferView":1,"byteOffset":0,"componentType":5126,"count":501,"max":[0.016536226496100426,0.020130395889282227,0.1598469465970993],"min":[-0.016536206007003784,-0.032945599406957626,0.11231917142868042],"type":"VEC3"},{"bufferView":2,"byteOffset":0,"componentType":5126,"count":501,"type":"VEC3"},{"bufferView":3,"byteOffset":0,"componentType":5126,"count":501,"type":"VEC2"},{"bufferView":4,"byteOffset":0,"componentType":5125,"count":3354,"type":"SCALAR"},{"bufferView":5,"byteOffset":0,"componentType":5126,"count":781,"max":[0.03795819357037544,0.03195600584149361,0.17332300543785095],"min":[-0.03795808553695679,-0.06211636960506439,0.08166752755641937],"type":"VEC3"},{"bufferView":6,"byteOffset":0,"componentType":5126,"count":781,"type":"VEC3"},{"bufferView":7,"byteOffset":0,"componentType":5126,"count":781,"type":"VEC2"},{"bufferView":8,"byteOffset":0,"componentType":5125,"count":2604,"type":"SCALAR"},{"bufferView":9,"byteOffset":0,"componentType":5126,"count":480,"max":[0.006824500858783722,0.07605736702680588,0.17492060363292694],"min":[-0.006824499927461147,0.018839474767446518,0.023313358426094055],"type":"VEC3"},{"bufferView":10,"byteOffset":0,"componentType":5126,"count":480,"type":"VEC3"},{"bufferView":11,"byteOffset":0,"componentType":5126,"count":480,"type":"VEC2"}],"bufferViews":[{"buffer":0,"byteOffset":0,"byteLength":9984,"target":34963},{"buffer":0,"byteOffset":9984,"byteLength":6012,"target":34962},{"buffer":0,"byteOffset":15996,"byteLength":6012,"target":34962},{"buffer":0,"byteOffset":22008,"byteLength":4008,"target":34962},{"buffer":0,"byteOffset":26016,"byteLength":13416,"target":34963},{"buffer":0,"byteOffset":39432,"byteLength":9372,"target":34962},{"buffer":0,"byteOffset":48804,"byteLength":9372,"target":34962},{"buffer":0,"byteOffset":58176,"byteLength":6248,"target":34962},{"buffer":0,"byteOffset":64424,"byteLength":10416,"target":34963},{"buffer":0,"byteOffset":74840,"byteLength":5760,"target":34962},{"buffer":0,"byteOffset":80600,"byteLength":5760,"target":34962},{"buffer":0,"byteOffset":86360,"byteLength":3840,"target":34962}],"scene":0,"scenes":[{"nodes":[0,1,2],"name":"light_without_stand"}],"extensionsUsed":["KHR_texture_transform"],"buffers":[{"byteLength":90200,"uri":"light_without_stand.bin"}]}